<?xml version="1.0" encoding="UTF-8"?>
<svg width="147px" height="30px" viewBox="0 0 147 30" version="1.1" xmlns="http://www.w3.org/2000/svg" xmlns:xlink="http://www.w3.org/1999/xlink">
    <!-- Generator: Sketch 55.1 (78136) - https://sketchapp.com -->
    <title>kudobuzz-logo</title>
    <desc>Created with Sketch.</desc>
    <defs>
        <path d="M0.291336957,18.4137895 L0.291336957,1.65715789 C0.291336957,0.765263158 1.00343478,0.0355263158 1.93496739,0.0355263158 C2.8665,0.0355263158 3.60576087,0.765263158 3.60576087,1.65715789 L3.60576087,12.1975789 L9.82396739,6.17063158 C10.2617717,5.73821053 10.6729457,5.46789474 11.248163,5.46789474 C12.124837,5.46789474 12.7000543,6.17063158 12.7000543,6.95442105 C12.7000543,7.49494737 12.4257609,7.90031579 11.9602609,8.33273684 L8.12547826,11.8192105 L12.5083152,17.4678421 C12.8092391,17.8732105 12.9466522,18.1705263 12.9466522,18.5488947 C12.9466522,19.4407895 12.2340217,20.0353684 11.3850435,20.0353684 C10.7278043,20.0353684 10.3443261,19.8191579 9.93315217,19.3056316 L5.79744565,13.8732632 L3.60576087,15.9273158 L3.60576087,18.4137895 C3.60576087,19.3326842 2.8665,20.0353684 1.93496739,20.0353684 C1.03113043,20.0353684 0.291336957,19.3326842 0.291336957,18.4137895 Z M26.8045978,7.11657895 L26.8045978,18.4137895 C26.8045978,19.3056316 26.0648043,20.0353684 25.1338043,20.0353684 C24.2299674,20.0353684 23.4630109,19.3326842 23.4630109,18.4137895 L23.4630109,17.6840526 C22.5314783,19.0353684 21.1893043,20.1975263 18.9432935,20.1975263 C15.6837283,20.1975263 13.7935,18.0353684 13.7935,14.7111053 L13.7935,7.11657895 C13.7935,6.19763158 14.5332935,5.46789474 15.4371304,5.46789474 C16.3681304,5.46789474 17.1079239,6.19763158 17.1079239,7.11657895 L17.1079239,13.7381053 C17.1079239,15.9543158 18.2311957,17.1975789 20.202913,17.1975789 C22.120837,17.1975789 23.4630109,15.9002632 23.4630109,13.6840526 L23.4630109,7.11657895 C23.4630109,6.19763158 24.2022717,5.46789474 25.1338043,5.46789474 C26.0376413,5.46789474 26.8045978,6.19763158 26.8045978,7.11657895 Z M43.1279891,1.65715789 L43.1279891,18.4137895 C43.1279891,19.3326842 42.3881957,20.0353684 41.4843587,20.0353684 C40.5533587,20.0353684 39.8135652,19.3326842 39.8135652,18.4137895 L39.8135652,17.5218947 C38.7451522,19.0083684 37.2389348,20.1975263 34.8832065,20.1975263 C31.4867609,20.1975263 28.172337,17.5218947 28.172337,12.7922105 L28.172337,12.7381579 C28.172337,8.00842105 31.4319022,5.33278947 34.8832065,5.33278947 C37.2660978,5.33278947 38.7728478,6.49494737 39.8135652,7.84626316 L39.8135652,1.65715789 C39.8135652,0.738210526 40.5533587,0.0355263158 41.4571957,0.0355263158 C42.3881957,0.0355263158 43.1279891,0.738210526 43.1279891,1.65715789 Z M35.6773261,8.17057895 C33.4041522,8.17057895 31.5139239,9.90031579 31.5139239,12.7381579 L31.5139239,12.7922105 C31.5139239,15.5489474 33.4313152,17.3597368 35.6773261,17.3597368 C37.8961739,17.3597368 39.8684239,15.5218947 39.8684239,12.7922105 L39.8684239,12.7381579 C39.8684239,9.98142105 37.8961739,8.17057895 35.6773261,8.17057895 Z M52.1375978,20.2245789 C47.7275978,20.2245789 44.4680326,16.9002632 44.4680326,12.8462632 L44.4680326,12.7922105 C44.4680326,8.71115789 47.7552935,5.33278947 52.1924565,5.33278947 C56.6301522,5.33278947 59.8897174,8.65710526 59.8897174,12.7381579 L59.8897174,12.7922105 C59.8897174,16.8462105 56.6024565,20.2245789 52.1375978,20.2245789 Z M52.1924565,17.3597368 C54.8768043,17.3597368 56.5752935,15.3056842 56.5752935,12.8462632 L56.5752935,12.7922105 C56.5752935,10.2786842 54.7399239,8.19763158 52.1375978,8.19763158 C49.4809457,8.19763158 47.7824565,10.2516842 47.7824565,12.7381579 L47.7824565,12.7922105 C47.7824565,15.2786316 49.6178261,17.3597368 52.1924565,17.3597368 Z M61.2297609,18.4137895 L61.2297609,1.65715789 C61.2297609,0.738210526 61.9418587,0.0355263158 62.8733913,0.0355263158 C63.8043913,0.0355263158 64.5441848,0.738210526 64.5441848,1.65715789 L64.5441848,8.00842105 C65.6125978,6.52194737 67.1188152,5.33278947 69.4745435,5.33278947 C72.8709891,5.33278947 76.185413,7.98142105 76.185413,12.7381579 L76.185413,12.7922105 C76.185413,17.5218947 72.8986848,20.1975263 69.4745435,20.1975263 C67.0639565,20.1975263 65.5577391,19.0083684 64.5441848,17.6840526 L64.5441848,18.4137895 C64.5441848,19.3056316 63.8043913,20.0353684 62.8733913,20.0353684 C61.9695543,20.0353684 61.2297609,19.3056316 61.2297609,18.4137895 Z M68.6804239,17.3597368 C70.9535978,17.3597368 72.816663,15.603 72.816663,12.7922105 L72.816663,12.7381579 C72.816663,9.98142105 70.9264348,8.17057895 68.6804239,8.17057895 C66.434413,8.17057895 64.462163,10.0084211 64.462163,12.7381579 L64.462163,12.7922105 C64.462163,15.5218947 66.434413,17.3597368 68.6804239,17.3597368 Z M90.4273696,7.11657895 L90.4273696,18.4137895 C90.4273696,19.3056316 89.6875761,20.0353684 88.7565761,20.0353684 C87.8522065,20.0353684 87.08525,19.3326842 87.08525,18.4137895 L87.08525,17.6840526 C86.15425,19.0353684 84.8120761,20.1975263 82.5660652,20.1975263 C79.3065,20.1975263 77.4162717,18.0353684 77.4162717,14.7111053 L77.4162717,7.11657895 C77.4162717,6.19763158 78.1560652,5.46789474 79.0599022,5.46789474 C79.9909022,5.46789474 80.7306957,6.19763158 80.7306957,7.11657895 L80.7306957,13.7381053 C80.7306957,15.9543158 81.8534348,17.1975789 83.8256848,17.1975789 C85.7430761,17.1975789 87.08525,15.9002632 87.08525,13.6840526 L87.08525,7.11657895 C87.08525,6.19763158 87.8250435,5.46789474 88.7565761,5.46789474 C89.660413,5.46789474 90.4273696,6.19763158 90.4273696,7.11657895 Z M93.4110435,19.9002632 C92.4795109,19.9002632 91.7945761,19.3326842 91.7945761,18.5759474 L91.7945761,18.5218947 C91.7945761,17.9002632 92.0140109,17.4948421 92.5343696,16.9543158 L100.23163,8.30573684 L93.4110435,8.30573684 C92.644087,8.30573684 92.0411739,7.71115789 92.0411739,6.98142105 C92.0411739,6.22468421 92.644087,5.63010526 93.4110435,5.63010526 L102.943141,5.63010526 C103.846978,5.63010526 104.531913,6.17063158 104.531913,6.92736842 L104.531913,7.00847368 C104.531913,7.63005263 104.313011,8.03547368 103.819815,8.576 L96.0953913,17.2245789 L103.216902,17.2245789 C103.983859,17.2245789 104.586772,17.8191579 104.586772,18.5759474 C104.586772,19.3056316 103.983859,19.9002632 103.216902,19.9002632 L93.4110435,19.9002632 Z M106.721467,19.9002632 C105.789935,19.9002632 105.105,19.3326842 105.105,18.5759474 L105.105,18.5218947 C105.105,17.9002632 105.324435,17.4948421 105.844793,16.9543158 L113.541522,8.30573684 L106.721467,8.30573684 C105.954511,8.30573684 105.351598,7.71115789 105.351598,6.98142105 C105.351598,6.22468421 105.954511,5.63010526 106.721467,5.63010526 L116.253565,5.63010526 C117.157402,5.63010526 117.842337,6.17063158 117.842337,6.92736842 L117.842337,7.00847368 C117.842337,7.63005263 117.622902,8.03547368 117.130239,8.576 L109.405815,17.2245789 L116.527326,17.2245789 C117.294283,17.2245789 117.897196,17.8191579 117.897196,18.5759474 C117.897196,19.3056316 117.294283,19.9002632 116.527326,19.9002632 L106.721467,19.9002632 Z" id="path-1"></path>
        <path d="M18.6911565,1.76810526 C20.6969076,3.75010526 20.6969076,6.96357895 18.6911565,8.94557895 L5.40091848,22.0788421 L1.36118804,18.0868421 C-0.419163043,16.3275263 -0.419163043,13.4751053 1.36118804,11.7158421 L11.4278652,1.76810526 C13.433563,-0.213894737 16.6854587,-0.213894737 18.6911565,1.76810526 Z M17.4908163,19.6927368 L18.7114489,20.8989474 C20.7141109,22.8779474 20.7141109,26.0865263 18.7114489,28.0655263 L18.3089033,28.4633158 C16.5285522,30.2226316 13.6420793,30.2226316 11.8617283,28.4633158 L7.01498913,23.6738421 L11.0436413,19.6927368 C12.8239924,17.9334737 15.7104652,17.9334737 17.4908163,19.6927368 Z" id="path-3"></path>
    </defs>
    <g id="Menu" stroke="none" stroke-width="1" fill="none" fill-rule="evenodd">
        <g id="New-Menu-expand" transform="translate(-24.000000, -16.000000)">
            <g id="menu">
                <g id="menu/logo">
                    <g id="kudobuzz-logo" transform="translate(24.000000, 16.000000)">
                        <g id="Group-167" transform="translate(28.760870, 4.736842)">
                            <mask id="mask-2" fill="white">
                                <use xlink:href="#path-1"></use>
                            </mask>
                            <g id="Clip-166"></g>
                            <polygon id="Fill-165" fill="#FFFFFF" mask="url(#mask-2)" points="-2.37170652 -2.59605263 120.560239 -2.59605263 120.560239 22.8561579 -2.37170652 22.8561579"></polygon>
                        </g>
                        <g id="Group-170">
                            <mask id="mask-4" fill="white">
                                <use xlink:href="#path-3"></use>
                            </mask>
                            <g id="Clip-169"></g>
                            <polygon id="Fill-168" fill="#FC871F" mask="url(#mask-4)" points="15.0595109 -5.54226316 35.7731957 14.9268421 15.0853424 35.3704211 -5.62850217 14.9013158"></polygon>
                        </g>
                    </g>
                </g>
            </g>
        </g>
    </g>
</svg>